<svg width="800" height="680" viewBox="0 0 800 680" xmlns="http://www.w3.org/2000/svg" style="display: block; margin: 0px auto; max-width: 100%;"><rect width="800" height="680" fill="#0a0e1a"/><text x="400" y="38" fill="#e2e8f0" font-size="17" font-weight="700" text-anchor="middle" font-family="system-ui, sans-serif" letter-spacing="2">ROS2 LIFECYCLE NODE — STATE MACHINE</text><text x="400" y="58" fill="#64748b" font-size="11" text-anchor="middle" font-family="system-ui, sans-serif">ObstacleDetector node transitions</text><line x1="50" y1="100" x2="750" y2="100" stroke="#1e293b" stroke-width="0.3" opacity="0.5"/><line x1="50" y1="200" x2="750" y2="200" stroke="#1e293b" stroke-width="0.3" opacity="0.5"/><line x1="50" y1="300" x2="750" y2="300" stroke="#1e293b" stroke-width="0.3" opacity="0.5"/><line x1="50" y1="400" x2="750" y2="400" stroke="#1e293b" stroke-width="0.3" opacity="0.5"/><line x1="50" y1="500" x2="750" y2="500" stroke="#1e293b" stroke-width="0.3" opacity="0.5"/><line x1="50" y1="600" x2="750" y2="600" stroke="#1e293b" stroke-width="0.3" opacity="0.5"/><line x1="100" y1="80" x2="100" y2="640" stroke="#1e293b" stroke-width="0.3" opacity="0.5"/><line x1="200" y1="80" x2="200" y2="640" stroke="#1e293b" stroke-width="0.3" opacity="0.5"/><line x1="300" y1="80" x2="300" y2="640" stroke="#1e293b" stroke-width="0.3" opacity="0.5"/><line x1="400" y1="80" x2="400" y2="640" stroke="#1e293b" stroke-width="0.3" opacity="0.5"/><line x1="500" y1="80" x2="500" y2="640" stroke="#1e293b" stroke-width="0.3" opacity="0.5"/><line x1="600" y1="80" x2="600" y2="640" stroke="#1e293b" stroke-width="0.3" opacity="0.5"/><line x1="700" y1="80" x2="700" y2="640" stroke="#1e293b" stroke-width="0.3" opacity="0.5"/><defs><marker id="m-blue" viewBox="0 0 10 7" refX="9" refY="3.5" markerWidth="7" markerHeight="5" orient="auto-start-reverse"><path d="M 0 0 L 10 3.5 L 0 7 z" fill="#38bdf8"/></marker><marker id="m-green" viewBox="0 0 10 7" refX="9" refY="3.5" markerWidth="7" markerHeight="5" orient="auto-start-reverse"><path d="M 0 0 L 10 3.5 L 0 7 z" fill="#34d399"/></marker><marker id="m-yellow" viewBox="0 0 10 7" refX="9" refY="3.5" markerWidth="7" markerHeight="5" orient="auto-start-reverse"><path d="M 0 0 L 10 3.5 L 0 7 z" fill="#fbbf24"/></marker><marker id="m-gray" viewBox="0 0 10 7" refX="9" refY="3.5" markerWidth="7" markerHeight="5" orient="auto-start-reverse"><path d="M 0 0 L 10 3.5 L 0 7 z" fill="#64748b"/></marker><marker id="m-red" viewBox="0 0 10 7" refX="9" refY="3.5" markerWidth="7" markerHeight="5" orient="auto-start-reverse"><path d="M 0 0 L 10 3.5 L 0 7 z" fill="#fb7185"/></marker></defs><line x1="340" y1="160" x2="340" y2="270" stroke="#38bdf8" stroke-width="1.8" marker-end="url(#m-blue)"/><rect x="220" y="198" width="104" height="22" rx="4" fill="#0a0e1a" stroke="#38bdf8" stroke-width="0.8"/><text x="272" y="213" fill="#38bdf8" font-size="9.5" font-family="monospace" text-anchor="middle">on_configure</text><line x1="340" y1="320" x2="340" y2="430" stroke="#34d399" stroke-width="1.8" marker-end="url(#m-green)"/><rect x="220" y="358" width="104" height="22" rx="4" fill="#0a0e1a" stroke="#34d399" stroke-width="0.8"/><text x="272" y="373" fill="#34d399" font-size="9.5" font-family="monospace" text-anchor="middle">on_activate</text><line x1="460" y1="430" x2="460" y2="320" stroke="#fbbf24" stroke-width="1.8" marker-end="url(#m-yellow)"/><rect x="476" y="358" width="112" height="22" rx="4" fill="#0a0e1a" stroke="#fbbf24" stroke-width="0.8"/><text x="532" y="373" fill="#fbbf24" font-size="9.5" font-family="monospace" text-anchor="middle">on_deactivate</text><line x1="460" y1="270" x2="460" y2="160" stroke="#64748b" stroke-width="1.8" marker-end="url(#m-gray)"/><rect x="476" y="198" width="92" height="22" rx="4" fill="#0a0e1a" stroke="#64748b" stroke-width="0.8"/><text x="522" y="213" fill="#64748b" font-size="9.5" font-family="monospace" text-anchor="middle">on_cleanup</text><path d="M 500 135 C 660 135, 660 580, 500 580" stroke="#fb7185" stroke-width="1" fill="none" stroke-dasharray="4 3" marker-end="url(#m-red)" opacity="0.35"/><path d="M 500 295 C 630 295, 630 580, 500 580" stroke="#fb7185" stroke-width="1" fill="none" stroke-dasharray="4 3" marker-end="url(#m-red)" opacity="0.35"/><path d="M 500 455 C 600 455, 600 580, 500 580" stroke="#fb7185" stroke-width="1" fill="none" stroke-dasharray="4 3" marker-end="url(#m-red)" opacity="0.35"/><rect x="620" y="430" width="96" height="22" rx="4" fill="#0a0e1a" stroke="#fb7185" stroke-width="0.8" opacity="0.5"/><text x="668" y="445" fill="#fb7185" font-size="9.5" font-family="monospace" text-anchor="middle" opacity="0.6">on_shutdown</text><g><rect x="300" y="106" width="200" height="58" rx="12" fill="#141926" stroke="#64748b" stroke-width="1.2"/><text x="400" y="129" fill="#64748b" font-size="13" font-weight="700" text-anchor="middle" font-family="monospace" letter-spacing="1.5">UNCONFIGURED</text><text x="400" y="149" fill="#64748b" font-size="10" text-anchor="middle" font-family="system-ui, sans-serif">Node exists, nothing set up</text></g><g><rect x="300" y="266" width="200" height="58" rx="12" fill="#141926" stroke="#fbbf24" stroke-width="1.2"/><text x="400" y="289" fill="#fbbf24" font-size="13" font-weight="700" text-anchor="middle" font-family="monospace" letter-spacing="1.5">INACTIVE</text><text x="400" y="309" fill="#64748b" font-size="10" text-anchor="middle" font-family="system-ui, sans-serif">Publishers, subscribers, params ready</text></g><g><rect x="300" y="426" width="200" height="58" rx="12" fill="#141926" stroke="#34d399" stroke-width="1.2"/><text x="400" y="449" fill="#34d399" font-size="13" font-weight="700" text-anchor="middle" font-family="monospace" letter-spacing="1.5">ACTIVE</text><text x="400" y="469" fill="#64748b" font-size="10" text-anchor="middle" font-family="system-ui, sans-serif">Processing scans, publishing alerts</text></g><g><rect x="300" y="551" width="200" height="58" rx="12" fill="#141926" stroke="#fb7185" stroke-width="1.2"/><text x="400" y="574" fill="#fb7185" font-size="13" font-weight="700" text-anchor="middle" font-family="monospace" letter-spacing="1.5">FINALIZED</text><text x="400" y="594" fill="#64748b" font-size="10" text-anchor="middle" font-family="system-ui, sans-serif">Destroyed, no recovery</text></g><g><rect x="60" y="118" width="170" height="36" rx="6" fill="#38bdf808" stroke="#38bdf8" stroke-width="0.5" opacity="0.7"/><text x="145" y="133" fill="#38bdf8" font-size="8.5" font-family="monospace" text-anchor="middle" opacity="0.8">declare_parameter()</text><text x="145" y="145" fill="#38bdf8" font-size="8.5" font-family="monospace" text-anchor="middle" opacity="0.8">create_publisher / sub</text></g><g><rect x="60" y="278" width="170" height="36" rx="6" fill="#34d39908" stroke="#34d399" stroke-width="0.5" opacity="0.7"/><text x="145" y="293" fill="#34d399" font-size="8.5" font-family="monospace" text-anchor="middle" opacity="0.8">is_active_ = true</text><text x="145" y="305" fill="#34d399" font-size="8.5" font-family="monospace" text-anchor="middle" opacity="0.8">pub-&gt;on_activate()</text></g><g><rect x="60" y="438" width="170" height="36" rx="6" fill="#fbbf2408" stroke="#fbbf24" stroke-width="0.5" opacity="0.7"/><text x="145" y="453" fill="#fbbf24" font-size="8.5" font-family="monospace" text-anchor="middle" opacity="0.8">is_active_ = false</text><text x="145" y="465" fill="#fbbf24" font-size="8.5" font-family="monospace" text-anchor="middle" opacity="0.8">pub-&gt;on_deactivate()</text></g><g><rect x="60" y="563" width="170" height="36" rx="6" fill="#fb718508" stroke="#fb7185" stroke-width="0.5" opacity="0.7"/><text x="145" y="578" fill="#fb7185" font-size="8.5" font-family="monospace" text-anchor="middle" opacity="0.8">sub.reset() / pub.reset()</text><text x="145" y="590" fill="#fb7185" font-size="8.5" font-family="monospace" text-anchor="middle" opacity="0.8">RAII cleanup</text></g><text x="400" y="650" fill="#64748b" font-size="9" text-anchor="middle" font-family="monospace" opacity="0.6">Each callback returns SUCCESS or FAILURE · Failure → error state</text><text x="400" y="668" fill="#64748b" font-size="9" text-anchor="middle" font-family="monospace" opacity="0.4">obstacle_detector · ROS2 Humble · rclcpp_lifecycle</text></svg>